#define image_width  8
#define image_height 8
static unsigned char image_bits[] = {
 0x00,0x42,0x24,0x18,0x18,0x24,0x42,0x00};
