#define image_width  8
#define image_height 8
static unsigned char image_bits[] = {
 0x00,0x00,0x00,0x00,0x00,0x00,0x7e,0x00};
